<svg version="1.2" xmlns="http://www.w3.org/2000/svg" viewBox="0 0 60 60" width="60" height="60"><style>.a{fill:#f2f9ff}.b{fill:#f95454}.c{fill:#ffe3e3}.d{fill:#38bdf8}</style><path class="a" d="m52 23c0-2.5-0.7-5-2.2-7.2-1.4-2.1-3.4-3.8-5.7-4.8-2.3-1-4.9-1.2-7.4-0.8-2.5 0.5-4.9 1.7-6.7 3.4-2.5-2.3-5.7-3.6-9.2-3.6-3.4 0.1-6.6 1.4-9 3.9-2.4 2.4-3.8 5.6-3.8 9 0 3.5 1.3 6.7 3.7 9.2l16.9 17.3q0.2 0.3 0.6 0.4 0.4 0.2 0.8 0.2 0.4 0 0.8-0.2 0.3-0.1 0.6-0.4l16.9-17.3q0.9-0.9 1.6-2 0.7-1 1.1-2.2 0.5-1.2 0.8-2.4 0.2-1.2 0.2-2.5z"/><path fill-rule="evenodd" class="b" d="m30 51.5q-0.3 0-0.7-0.1-0.3 0-0.6-0.2-0.3-0.1-0.6-0.3-0.3-0.2-0.5-0.4-0.1 0-0.1-0.1l-16.9-17.3q0 0-0.1-0.1c-2.5-2.6-4-6.2-4-9.8-0.1-3.7 1.3-7.3 3.8-10 2.4-2.7 5.9-4.4 9.5-4.7 3.7-0.3 7.3 0.9 10.2 3.1 2.9-2.2 6.5-3.3 10.2-3 3.6 0.2 7 1.9 9.5 4.6 2.5 2.7 3.8 6.3 3.8 10 0 3.6-1.5 7.2-4 9.8q0 0 0 0-0.1 0.1-0.1 0.1 0 0 0 0 0 0 0 0l-16.9 17.3q0 0.1-0.1 0.1-0.2 0.2-0.5 0.4-0.3 0.2-0.6 0.3-0.3 0.2-0.6 0.2-0.4 0.1-0.7 0.1zm-0.4-3.2q0 0 0 0 0.1 0.1 0.2 0.2 0.1 0 0.2 0 0.1 0 0.2 0 0.1-0.1 0.2-0.2l16.7-17.2q0.1 0 0.1-0.1c2.1-2.1 3.3-5 3.3-8 0-3.1-1.2-5.9-3.4-8.1-2.1-2.1-5-3.3-8-3.4-3 0-5.9 1.1-8.1 3.2q-0.2 0.2-0.4 0.3-0.3 0.1-0.6 0.1-0.3 0-0.6-0.1-0.2-0.1-0.4-0.3c-2.2-2.1-5.1-3.2-8.1-3.2-3 0.1-5.9 1.3-8 3.4-2.2 2.2-3.4 5-3.4 8.1 0 3 1.2 5.9 3.3 8q0 0.1 0.1 0.1z"/><path class="c" d="m31.4 50.9q-0.4 0-0.8-0.2-0.4-0.3-0.5-0.7-0.2-0.4-0.1-0.9 0-0.4 0.4-0.7l16.7-17.3q0.1 0 0.1-0.1 0.8-0.8 1.4-1.7 0.6-0.9 1.1-2 0.4-1 0.6-2.1 0.2-1.1 0.2-2.2c0-0.4 0.2-0.8 0.4-1.1 0.3-0.2 0.7-0.4 1.1-0.4 0.4 0 0.8 0.2 1.1 0.4 0.2 0.3 0.4 0.7 0.4 1.1q0 1.4-0.3 2.7-0.2 1.4-0.7 2.7-0.6 1.3-1.3 2.4-0.8 1.2-1.7 2.2 0 0 0 0-0.1 0.1-0.1 0.1 0 0 0 0 0 0 0 0l-16.9 17.3q-0.1 0.2-0.2 0.2-0.1 0.1-0.3 0.2-0.1 0-0.3 0.1-0.1 0-0.3 0z"/><path class="d" d="m34 39.5q-0.1 0-0.1 0-0.3 0-0.5-0.1-0.2-0.1-0.4-0.3-0.2-0.1-0.3-0.3-0.1-0.2-0.2-0.5l-2.5-11.4-2.5 11.4q-0.1 0.5-0.5 0.8-0.4 0.4-0.9 0.4-0.5 0-0.9-0.2-0.4-0.3-0.6-0.7l-2.9-7.4-2.5 3.6q-0.1 0.2-0.2 0.3-0.1 0.1-0.3 0.2-0.2 0.1-0.3 0.2-0.2 0-0.4 0h-10c-0.4 0-0.8-0.2-1.1-0.4-0.2-0.3-0.4-0.7-0.4-1.1 0-0.4 0.2-0.8 0.4-1.1 0.3-0.2 0.7-0.4 1.1-0.4h9.2l3.6-5.3q0.2-0.4 0.6-0.6 0.3-0.1 0.8-0.1 0.4 0.1 0.7 0.3 0.3 0.3 0.5 0.6l2.2 5.5 2.9-13.2q0.2-0.5 0.6-0.9 0.4-0.3 0.9-0.3 0.5 0 0.9 0.3 0.5 0.4 0.6 0.9l2.9 13.2 2.2-5.5q0.2-0.3 0.5-0.6 0.3-0.2 0.8-0.3 0.4 0 0.7 0.1 0.4 0.2 0.7 0.6l3.5 5.3h9.2c0.4 0 0.8 0.2 1.1 0.4 0.2 0.3 0.4 0.7 0.4 1.1 0 0.4-0.2 0.8-0.4 1.1-0.3 0.2-0.7 0.4-1.1 0.4h-10q-0.2 0-0.4 0-0.1-0.1-0.3-0.2-0.2-0.1-0.3-0.2-0.1-0.1-0.2-0.3l-2.5-3.6-2.9 7.4q-0.1 0.2-0.2 0.3-0.2 0.2-0.4 0.3-0.1 0.2-0.4 0.2-0.2 0.1-0.4 0.1z"/></svg>